<svg xmlns="http://www.w3.org/2000/svg" xmlns:svg="http://www.w3.org/2000/svg" id="svg4020" width="659.023" height="185.343" version="1.1" viewBox="0 0 659.023 185.343" xml:space="preserve"><g id="g4028" transform="matrix(1.3333333,0,0,-1.3333333,-67.337652,653.665)"><path style="fill:#fff;fill-opacity:1;fill-rule:evenodd;stroke:none" id="path4030" d="m 50.76,351.36 h 493.92 v 138.6 H 50.76 Z"/><path style="fill:#fff;fill-opacity:1;fill-rule:evenodd;stroke:none" id="path4032" d="M 129.84,367.32 H 497.4 v 81.96 H 129.84 Z"/><path style="fill:#558ed5;fill-opacity:1;fill-rule:nonzero;stroke:none" id="path4034" d="m 129.84,375.36 h 67.8 v -4.56 h -67.8 z m 0,20.52 h 171.72 v -4.56 H 129.84 Z m 0,20.4 h 70.08 v -4.56 h -70.08 z m 0,20.52 h 77.52 v -4.56 h -77.52 z"/><path style="fill:#b9cde5;fill-opacity:1;fill-rule:nonzero;stroke:none" id="path4036" d="m 129.84,379.92 h 78.48 v -4.56 h -78.48 z m 0,20.52 h 219.84 v -4.56 H 129.84 Z m 0,20.4 h 78.24 v -4.56 h -78.24 z m 0,20.52 h 219.6 v -4.56 h -219.6 z"/><path style="fill:#d7e4bd;fill-opacity:1;fill-rule:nonzero;stroke:none" id="path4038" d="m 129.84,384.48 h 367.44 v -4.56 H 129.84 Z m 0,20.52 h 367.44 v -4.56 H 129.84 Z m 0,20.4 h 367.44 v -4.56 H 129.84 Z m 0,20.52 h 367.44 v -4.56 H 129.84 Z"/><path style="fill:none;stroke:#868686;stroke-width:.36000001;stroke-linecap:butt;stroke-linejoin:round;stroke-miterlimit:10;stroke-dasharray:none;stroke-opacity:1" id="path4040" d="M 129.9,367.38 H 497.34"/><path style="fill:none;stroke:#868686;stroke-width:.36000001;stroke-linecap:butt;stroke-linejoin:round;stroke-miterlimit:10;stroke-dasharray:none;stroke-opacity:1" id="path4042" d="m 129.9,367.38 v 81.96"/><g id="g4044"><g id="g4046" clip-path="url(#clipPath4050)"><text style="font-variant:normal;font-weight:400;font-size:6.33599997px;font-family:Times New Roman,serif;-inkscape-font-specification:Times New Roman,serif;writing-mode:lr-tb;fill:#000;fill-opacity:1;fill-rule:nonzero;stroke:none" id="text4054" transform="matrix(1,0,0,-1,126.05,357.29)"><tspan id="tspan4052" x="0 3.216" y="0">0%</tspan></text></g></g><g id="g4064"><g id="g4066" clip-path="url(#clipPath4070)"><text style="font-variant:normal;font-weight:400;font-size:6.33599997px;font-family:Times New Roman,serif;-inkscape-font-specification:Times New Roman,serif;writing-mode:lr-tb;fill:#000;fill-opacity:1;fill-rule:nonzero;stroke:none" id="text4074" transform="matrix(1,0,0,-1,197.95,357.29)"><tspan id="tspan4072" x="0 3.216 6.432" y="0">20%</tspan></text></g></g><g id="g4084"><g id="g4086" clip-path="url(#clipPath4090)"><text style="font-variant:normal;font-weight:400;font-size:6.33599997px;font-family:Times New Roman,serif;-inkscape-font-specification:Times New Roman,serif;writing-mode:lr-tb;fill:#000;fill-opacity:1;fill-rule:nonzero;stroke:none" id="text4094" transform="matrix(1,0,0,-1,271.46,357.29)"><tspan id="tspan4092" x="0 3.192 6.384" y="0">40%</tspan></text></g></g><g id="g4104"><g id="g4106" clip-path="url(#clipPath4110)"><text style="font-variant:normal;font-weight:400;font-size:6.33599997px;font-family:Times New Roman,serif;-inkscape-font-specification:Times New Roman,serif;writing-mode:lr-tb;fill:#000;fill-opacity:1;fill-rule:nonzero;stroke:none" id="text4114" transform="matrix(1,0,0,-1,344.95,357.29)"><tspan id="tspan4112" x="0 3.216 6.432" y="0">60%</tspan></text></g></g><g id="g4124"><g id="g4126" clip-path="url(#clipPath4130)"><text style="font-variant:normal;font-weight:400;font-size:6.33599997px;font-family:Times New Roman,serif;-inkscape-font-specification:Times New Roman,serif;writing-mode:lr-tb;fill:#000;fill-opacity:1;fill-rule:nonzero;stroke:none" id="text4134" transform="matrix(1,0,0,-1,418.46,357.29)"><tspan id="tspan4132" x="0 3.216 6.432" y="0">80%</tspan></text></g></g><g id="g4144"><g id="g4146" clip-path="url(#clipPath4150)"><text style="font-variant:normal;font-weight:400;font-size:6.33599997px;font-family:Times New Roman,serif;-inkscape-font-specification:Times New Roman,serif;writing-mode:lr-tb;fill:#000;fill-opacity:1;fill-rule:nonzero;stroke:none" id="text4154" transform="matrix(1,0,0,-1,490.37,357.29)"><tspan id="tspan4152" x="0 3.192 6.384 9.576" y="0">100%</tspan></text></g></g><g id="g4164"><g id="g4166" clip-path="url(#clipPath4170)"><text style="font-variant:normal;font-weight:400;font-size:6.33599997px;font-family:Times New Roman,serif;-inkscape-font-specification:Times New Roman,serif;writing-mode:lr-tb;fill:#000;fill-opacity:1;fill-rule:nonzero;stroke:none" id="text4174" transform="matrix(1,0,0,-1,55.08,375.79)"><tspan id="tspan4172" x="0 3.377 6.703 9.783 13.135 16.119 19.274 20.668 24.02 25.952 29.006 30.704 32.364 36.895 39.106 40.563 42.724 45.879 49.009 51.841 54.908 57.132 58.589 61.801 65.014 66.934" y="0">Change dfa::write_vari32()</tspan></text></g></g><g id="g4184"><g id="g4186" clip-path="url(#clipPath4190)"><text style="font-variant:normal;font-weight:400;font-size:6.33599997px;font-family:Times New Roman,serif;-inkscape-font-specification:Times New Roman,serif;writing-mode:lr-tb;fill:#000;fill-opacity:1;fill-rule:nonzero;stroke:none" id="text4194" transform="matrix(1,0,0,-1,57.984,396.26)"><tspan id="tspan4192" x="0 3.377 6.761 9.827 13.204 16.188 19.344 20.738 23.893 26.637 30.02 33.087 36.464 39.841 41.539 43.199 46.354 49.098 52.481 55.548 58.925 62.302 64.222" y="0">Change expand::expand()</tspan></text></g></g><g id="g4204"><g id="g4206" clip-path="url(#clipPath4210)"><text style="font-variant:normal;font-weight:400;font-size:6.33599997px;font-family:Times New Roman,serif;-inkscape-font-specification:Times New Roman,serif;writing-mode:lr-tb;fill:#000;fill-opacity:1;fill-rule:nonzero;stroke:none" id="text4214" transform="matrix(1,0,0,-1,68.184,416.74)"><tspan id="tspan4212" x="0 3.377 6.703 9.764 13.116 16.1 19.236 20.605 23.741 25.952 28.164 31.503 33.714 35.412 37.085 39.765 42.812 46.164 48.61 51.765 53.685" y="0">Change Error::cause()</tspan></text></g></g><g id="g4224"><g id="g4226" clip-path="url(#clipPath4230)"><text style="font-variant:normal;font-weight:400;font-size:6.33599997px;font-family:Times New Roman,serif;-inkscape-font-specification:Times New Roman,serif;writing-mode:lr-tb;fill:#000;fill-opacity:1;fill-rule:nonzero;stroke:none" id="text4234" transform="matrix(1,0,0,-1,61.56,437.21)"><tspan id="tspan4232" x="0 3.377 6.703 9.764 13.116 16.1 19.211 20.579 23.956 27.295 32.358 35.684 37.142 38.58 41.697 43.908 45.588 47.286 50.612 53.748 58.234 60.129" y="0">Change Compiler::new()</tspan></text></g></g><g id="g4244"><g id="g4246" clip-path="url(#clipPath4250)"><text style="font-variant:normal;font-weight:700;font-size:11.47200012px;font-family:Times New Roman,serif;-inkscape-font-specification:'Times New Roman,serif Bold';writing-mode:lr-tb;fill:#000;fill-opacity:1;fill-rule:nonzero;stroke:none" id="text4254" transform="matrix(1,0,0,-1,202.7,474.26)"><tspan id="tspan4252" x="0 6.069 12.241 21.567 27.728 30.55 33.395 39.188 41.632 45.613 48.435 57.762 63.555 66.079 70.805 76.977 86.304 92.487 98.154 102.043 107.837 113.997 116.544 120.433 126.605 129.14 133.029 138.823 144.26 150.421 153.243 158.91 162.983 165.575 171.759 177.919 180.776 183.598 189.793" y="0">Compile time compared to regular build</tspan></text></g></g><g id="g4264"><g id="g4266" clip-path="url(#clipPath4270)"><text style="font-variant:normal;font-weight:700;font-size:11.44799995px;font-family:Times New Roman,serif;-inkscape-font-specification:'Times New Roman,serif Bold';writing-mode:lr-tb;fill:#000;fill-opacity:1;fill-rule:nonzero;stroke:none" id="text4274" transform="matrix(1,0,0,-1,183.96,460.27)"><tspan id="tspan4272" x="0 8.552 14.734 20.526 26.708 29.089 32.982 38.774 44.956 51.138 53.954 56.771 62.987 65.803 71.996 77.423 79.873 86.135 91.927 97.205 102.872 108.126 110.668 116.232 119.849 123.65 129.443 133.507 136.151 140.959 147.141 152.796 158.99 164.267 170.06 172.51 176.082 182.286 188.434 192.407 195.223 204.53 207.346 211.708 217.501 223.682" y="0">when rebuilding Regex after change (optimized)</tspan></text></g></g><path style="fill:#d7e4bd;fill-opacity:1;fill-rule:evenodd;stroke:none" id="path4284" d="m 514.68,413.52 h 3.6 v 3.6 h -3.6 z"/><g id="g4286"><g id="g4288" clip-path="url(#clipPath4292)"><text style="font-variant:normal;font-weight:400;font-size:6.33599997px;font-family:Times New Roman,serif;-inkscape-font-specification:Times New Roman,serif;writing-mode:lr-tb;fill:#000;fill-opacity:1;fill-rule:nonzero;stroke:none" id="text4296" transform="matrix(1,0,0,-1,519.74,413.54)"><tspan id="tspan4294" x="0 2.211 5.329 8.313 11.658 13.116 16.15" y="0">regular</tspan></text></g></g><path style="fill:#b9cde5;fill-opacity:1;fill-rule:evenodd;stroke:none" id="path4306" d="m 514.68,402 h 3.6 v 3.6 h -3.6 z"/><g id="g4308"><g id="g4310" clip-path="url(#clipPath4314)"><text style="font-variant:normal;font-weight:400;font-size:6.33599997px;font-family:Times New Roman,serif;-inkscape-font-specification:Times New Roman,serif;writing-mode:lr-tb;fill:#000;fill-opacity:1;fill-rule:nonzero;stroke:none" id="text4318" transform="matrix(1,0,0,-1,519.74,402.02)"><tspan id="tspan4316" x="0 3.035 4.492 7.844 11.196" y="0">alpha</tspan></text></g></g><path style="fill:#558ed5;fill-opacity:1;fill-rule:evenodd;stroke:none" id="path4328" d="m 514.68,390.48 h 3.6 v 3.6 h -3.6 z"/><g id="g4330"><g id="g4332" clip-path="url(#clipPath4336)"><text style="font-variant:normal;font-weight:400;font-size:6.36000013px;font-family:Times New Roman,serif;-inkscape-font-specification:Times New Roman,serif;writing-mode:lr-tb;fill:#000;fill-opacity:1;fill-rule:nonzero;stroke:none" id="text4340" transform="matrix(1,0,0,-1,519.74,390.5)"><tspan id="tspan4338" x="0 3.352 6.474 8.605" y="0">beta</tspan></text></g></g><path style="fill:none;stroke:#868686;stroke-width:.47751999;stroke-linecap:butt;stroke-linejoin:round;stroke-miterlimit:10;stroke-dasharray:none;stroke-opacity:1" id="path4350" d="m 50.742,351.48 h 493.79 V 490.01 H 50.742 Z"/></g></svg>