<svg xmlns="http://www.w3.org/2000/svg" xmlns:svg="http://www.w3.org/2000/svg" id="svg2" width="659" height="219.093" version="1.1" viewBox="0 0 617.812 205.4" xml:space="preserve"><metadata id="metadata8"/><defs id="defs6"><clipPath id="clipPath38" clipPathUnits="userSpaceOnUse"><path id="path40" d="m 50.88,339 493.56,0 0,163.68 -493.56,0 0,-163.68 z" style="clip-rule:evenodd"/></clipPath><clipPath id="clipPath50" clipPathUnits="userSpaceOnUse"><path id="path52" d="m 50.88,339 493.56,0 0,163.68 -493.56,0 0,-163.68 z" style="clip-rule:evenodd"/></clipPath><clipPath id="clipPath58" clipPathUnits="userSpaceOnUse"><path id="path60" d="m 50.88,339 493.56,0 0,163.68 -493.56,0 0,-163.68 z" style="clip-rule:evenodd"/></clipPath><clipPath id="clipPath70" clipPathUnits="userSpaceOnUse"><path id="path72" d="m 50.88,339 493.56,0 0,163.68 -493.56,0 0,-163.68 z" style="clip-rule:evenodd"/></clipPath><clipPath id="clipPath78" clipPathUnits="userSpaceOnUse"><path id="path80" d="m 50.88,339 493.56,0 0,163.68 -493.56,0 0,-163.68 z" style="clip-rule:evenodd"/></clipPath><clipPath id="clipPath90" clipPathUnits="userSpaceOnUse"><path id="path92" d="m 50.88,339 493.56,0 0,163.68 -493.56,0 0,-163.68 z" style="clip-rule:evenodd"/></clipPath><clipPath id="clipPath98" clipPathUnits="userSpaceOnUse"><path id="path100" d="m 85.8,339 95.88,0 0,26.16 -95.88,0 0,-26.16 z" style="clip-rule:evenodd"/></clipPath><clipPath id="clipPath110" clipPathUnits="userSpaceOnUse"><path id="path112" d="m 85.8,339 95.88,0 0,26.16 -95.88,0 0,-26.16 z" style="clip-rule:evenodd"/></clipPath><clipPath id="clipPath122" clipPathUnits="userSpaceOnUse"><path id="path124" d="m 85.8,339 95.88,0 0,26.16 -95.88,0 0,-26.16 z" style="clip-rule:evenodd"/></clipPath><clipPath id="clipPath130" clipPathUnits="userSpaceOnUse"><path id="path132" d="m 205.44,339 43.68,0 0,26.16 -43.68,0 0,-26.16 z" style="clip-rule:evenodd"/></clipPath><clipPath id="clipPath142" clipPathUnits="userSpaceOnUse"><path id="path144" d="m 205.44,339 43.68,0 0,26.16 -43.68,0 0,-26.16 z" style="clip-rule:evenodd"/></clipPath><clipPath id="clipPath150" clipPathUnits="userSpaceOnUse"><path id="path152" d="m 276.84,339 87.84,0 0,26.16 -87.84,0 0,-26.16 z" style="clip-rule:evenodd"/></clipPath><clipPath id="clipPath162" clipPathUnits="userSpaceOnUse"><path id="path164" d="m 276.84,339 87.84,0 0,26.16 -87.84,0 0,-26.16 z" style="clip-rule:evenodd"/></clipPath><clipPath id="clipPath174" clipPathUnits="userSpaceOnUse"><path id="path176" d="m 276.84,339 87.84,0 0,26.16 -87.84,0 0,-26.16 z" style="clip-rule:evenodd"/></clipPath><clipPath id="clipPath182" clipPathUnits="userSpaceOnUse"><path id="path184" d="m 394.92,339 38.76,0 0,26.16 -38.76,0 0,-26.16 z" style="clip-rule:evenodd"/></clipPath><clipPath id="clipPath194" clipPathUnits="userSpaceOnUse"><path id="path196" d="m 394.92,339 38.76,0 0,26.16 -38.76,0 0,-26.16 z" style="clip-rule:evenodd"/></clipPath><clipPath id="clipPath204" clipPathUnits="userSpaceOnUse"><path id="path206" d="m 475.92,339 38.64,0 0,117.12 -38.64,0 0,-117.12 z" style="clip-rule:evenodd"/></clipPath><clipPath id="clipPath216" clipPathUnits="userSpaceOnUse"><path id="path218" d="m 475.92,339 38.64,0 0,117.12 -38.64,0 0,-117.12 z" style="clip-rule:evenodd"/></clipPath><clipPath id="clipPath226" clipPathUnits="userSpaceOnUse"><path id="path228" d="m 475.92,339 65.04,0 0,102.12 -65.04,0 0,-102.12 z" style="clip-rule:evenodd"/></clipPath><clipPath id="clipPath238" clipPathUnits="userSpaceOnUse"><path id="path240" d="m 475.92,339 65.04,0 0,102.12 -65.04,0 0,-102.12 z" style="clip-rule:evenodd"/></clipPath><clipPath id="clipPath250" clipPathUnits="userSpaceOnUse"><path id="path252" d="m 475.92,339 65.04,0 0,102.12 -65.04,0 0,-102.12 z" style="clip-rule:evenodd"/></clipPath><clipPath id="clipPath262" clipPathUnits="userSpaceOnUse"><path id="path264" d="m 475.92,339 65.04,0 0,102.12 -65.04,0 0,-102.12 z" style="clip-rule:evenodd"/></clipPath><clipPath id="clipPath272" clipPathUnits="userSpaceOnUse"><path id="path274" d="m 475.92,339 32.64,0 0,87.12 -32.64,0 0,-87.12 z" style="clip-rule:evenodd"/></clipPath><clipPath id="clipPath284" clipPathUnits="userSpaceOnUse"><path id="path286" d="m 475.92,339 32.64,0 0,87.12 -32.64,0 0,-87.12 z" style="clip-rule:evenodd"/></clipPath><clipPath id="clipPath294" clipPathUnits="userSpaceOnUse"><path id="path296" d="m 475.92,339 22.2,0 0,72.12 -22.2,0 0,-72.12 z" style="clip-rule:evenodd"/></clipPath><clipPath id="clipPath306" clipPathUnits="userSpaceOnUse"><path id="path308" d="m 475.92,339 22.2,0 0,72.12 -22.2,0 0,-72.12 z" style="clip-rule:evenodd"/></clipPath><clipPath id="clipPath316" clipPathUnits="userSpaceOnUse"><path id="path318" d="m 475.92,339 27.72,0 0,57 -27.72,0 0,-57 z" style="clip-rule:evenodd"/></clipPath><clipPath id="clipPath328" clipPathUnits="userSpaceOnUse"><path id="path330" d="m 475.92,339 27.72,0 0,57 -27.72,0 0,-57 z" style="clip-rule:evenodd"/></clipPath></defs><g id="g10" transform="matrix(1.25,0,0,-1.25,-63.147575,628.73743)"><path style="fill:#fff;fill-opacity:1;fill-rule:evenodd;stroke:none" id="path12" d="m 50.88,338.88 493.68,0 0,163.8 -493.68,0 0,-163.8 z"/><path style="fill:#fff;fill-opacity:1;fill-rule:evenodd;stroke:none" id="path14" d="m 87,370.44 374.16,0 0,122.76 -374.16,0 0,-122.76 z"/><path style="fill:#4f81bd;fill-opacity:1;fill-rule:nonzero;stroke:none" id="path16" d="m 97.8,371.76 14.4,0 0,-1.2 -14.4,0 0,1.2 z m 93.48,13.2 14.4,0 0,-14.4 -14.4,0 0,14.4 z m 93.48,90.6 14.4,0 0,-105 -14.4,0 0,105 z m 93.6,-104.16 14.4,0 0,-0.84 -14.4,0 0,0.84 z"/><path style="fill:#c0504d;fill-opacity:1;fill-rule:nonzero;stroke:none" id="path18" d="m 112.2,371.4 14.4,0 0,-0.84 -14.4,0 0,0.84 z m 93.48,16.92 14.4,0 0,-17.76 -14.4,0 0,17.76 z m 93.48,84.96 14.4,0 0,-102.72 -14.4,0 0,102.72 z m 93.6,-102.12 14.4,0 0,-0.6 -14.4,0 0,0.6 z"/><path style="fill:#9bbb59;fill-opacity:1;fill-rule:nonzero;stroke:none" id="path20" d="m 126.6,371.64 14.4,0 0,-1.08 -14.4,0 0,1.08 z m 93.48,10.8 14.4,0 0,-11.88 -14.4,0 0,11.88 z m 93.48,96.36 14.4,0 0,-108.24 -14.4,0 0,108.24 z m 93.6,-107.52 14.28,0 0,-0.72 -14.28,0 0,0.72 z"/><path style="fill:#8064a2;fill-opacity:1;fill-rule:nonzero;stroke:none" id="path22" d="m 141,375.84 14.28,0 0,-5.28 -14.28,0 0,5.28 z m 93.48,32.16 14.4,0 0,-37.44 -14.4,0 0,37.44 z m 93.48,39.12 14.4,0 0,-76.56 -14.4,0 0,76.56 z m 93.48,-74.16 14.4,0 0,-2.4 -14.4,0 0,2.4 z"/><path style="fill:#4bacc6;fill-opacity:1;fill-rule:nonzero;stroke:none" id="path24" d="m 155.28,376.92 14.4,0 0,-6.36 -14.4,0 0,6.36 z m 93.6,66.6 14.4,0 0,-72.96 -14.4,0 0,72.96 z m 93.48,-30.48 14.4,0 0,-42.48 -14.4,0 0,42.48 z m 93.48,-42.24 14.4,0 0,-0.24 -14.4,0 0,0.24 z"/><path style="fill:none;stroke:#868686;stroke-width:.60000002;stroke-linecap:butt;stroke-linejoin:round;stroke-miterlimit:10;stroke-dasharray:none;stroke-opacity:1" id="path26" d="m 87.06,370.5 0,122.76"/><path style="fill:none;stroke:#868686;stroke-width:.60000002;stroke-linecap:butt;stroke-linejoin:round;stroke-miterlimit:10;stroke-dasharray:none;stroke-opacity:1" id="path28" d="m 84.3,370.5 2.76,0 m -2.76,61.44 2.76,0 m -2.76,61.32 2.76,0"/><path style="fill:none;stroke:#868686;stroke-width:.60000002;stroke-linecap:butt;stroke-linejoin:round;stroke-miterlimit:10;stroke-dasharray:none;stroke-opacity:1" id="path30" d="m 87.06,370.5 374.04,0"/><path style="fill:none;stroke:#868686;stroke-width:.60000002;stroke-linecap:butt;stroke-linejoin:round;stroke-miterlimit:10;stroke-dasharray:none;stroke-opacity:1" id="path32" d="m 87.06,370.5 0,-2.64 m 93.48,2.64 0,-2.64 m 93.48,2.64 0,-2.64 m 93.48,2.64 0,-2.64 m 93.6,2.64 0,-2.64"/><g id="g34"><g id="g36" clip-path="url(#clipPath38)"><text style="font-variant:normal;font-weight:400;font-size:9.02400017px;font-family:Arial;-inkscape-font-specification:Arial;writing-mode:lr-tb;fill:#000;fill-opacity:1;fill-rule:nonzero;stroke:none" id="text42" transform="matrix(1,0,0,-1,66.312,367.49)"><tspan id="tspan44" x="0 5.016" y="0">0%</tspan></text></g></g><g id="g54"><g id="g56" clip-path="url(#clipPath58)"><text style="font-variant:normal;font-weight:400;font-size:9px;font-family:Arial;-inkscape-font-specification:Arial;writing-mode:lr-tb;fill:#000;fill-opacity:1;fill-rule:nonzero;stroke:none" id="text62" transform="matrix(1,0,0,-1,61.272,428.83)"><tspan id="tspan64" x="0 5.016 10.032" y="0">50%</tspan></text></g></g><g id="g74"><g id="g76" clip-path="url(#clipPath78)"><text style="font-variant:normal;font-weight:400;font-size:9.02400017px;font-family:Arial;-inkscape-font-specification:Arial;writing-mode:lr-tb;fill:#000;fill-opacity:1;fill-rule:nonzero;stroke:none" id="text82" transform="matrix(1,0,0,-1,56.304,490.2)"><tspan id="tspan84" x="0 5.016 10.032 15.048" y="0">100%</tspan></text></g></g><g id="g94"><g id="g96" clip-path="url(#clipPath98)"><text style="font-variant:normal;font-weight:400;font-size:9.02400017px;font-family:Arial;-inkscape-font-specification:Arial;writing-mode:lr-tb;fill:#000;fill-opacity:1;fill-rule:nonzero;stroke:none" id="text102" transform="matrix(1,0,0,-1,96.12,356.66)"><tspan id="tspan104" x="0 6.019 11.036 13.996 18.508 20.512 25.529 30.546 32.694 37.711 42.729 47.746 50.092 57.555 62.572 67.084 70.008 75.026" y="0">Parsing and Macro</tspan></text></g></g><g id="g106"><g id="g108" clip-path="url(#clipPath110)"><text style="font-variant:normal;font-weight:400;font-size:9.02400017px;font-family:Arial;-inkscape-font-specification:Arial;writing-mode:lr-tb;fill:#000;fill-opacity:1;fill-rule:nonzero;stroke:none" id="text114" transform="matrix(1,0,0,-1,112.61,346.32)"><tspan id="tspan116" x="0 6.019 10.531 15.548 20.566 25.583 30.05 32.08 37.098" y="0">Expansion</tspan></text></g></g><g id="g126"><g id="g128" clip-path="url(#clipPath130)"><text style="font-variant:normal;font-weight:400;font-size:9.02400017px;font-family:Arial;-inkscape-font-specification:Arial;writing-mode:lr-tb;fill:#000;fill-opacity:1;fill-rule:nonzero;stroke:none" id="text134" transform="matrix(1,0,0,-1,210.46,356.66)"><tspan id="tspan136" x="0 6.037 11.054 16.072 18.102 22.497 27.009 29.039" y="0">Analysis</tspan></text></g></g><g id="g146"><g id="g148" clip-path="url(#clipPath150)"><text style="font-variant:normal;font-weight:400;font-size:9.02400017px;font-family:Arial;-inkscape-font-specification:Arial;writing-mode:lr-tb;fill:#000;fill-opacity:1;fill-rule:nonzero;stroke:none" id="text154" transform="matrix(1,0,0,-1,287.18,356.66)"><tspan id="tspan156" x="0 6.958 11.975 14.42 16.451 24.022 26.052 30.465 35.482 37.928 39.958 44.976 49.993 52.15 57.167 62.184 67.202" y="0">Optimization and</tspan></text></g></g><g id="g158"><g id="g160" clip-path="url(#clipPath162)"><text style="font-variant:normal;font-weight:400;font-size:9.02400017px;font-family:Arial;-inkscape-font-specification:Arial;writing-mode:lr-tb;fill:#000;fill-opacity:1;fill-rule:nonzero;stroke:none" id="text166" transform="matrix(1,0,0,-1,302.45,346.32)"><tspan id="tspan168" x="0 6.542 11.56 16.577 21.594 26.612 31.629" y="0">Codegen</tspan></text></g></g><g id="g178"><g id="g180" clip-path="url(#clipPath182)"><text style="font-variant:normal;font-weight:400;font-size:9.02400017px;font-family:Arial;-inkscape-font-specification:Arial;writing-mode:lr-tb;fill:#000;fill-opacity:1;fill-rule:nonzero;stroke:none" id="text186" transform="matrix(1,0,0,-1,399.98,356.66)"><tspan id="tspan188" x="0 5.017 7.075 12.092 16.685 18.743 23.76" y="0">Linking</tspan></text></g></g><path style="fill:#4f81bd;fill-opacity:1;fill-rule:evenodd;stroke:none" id="path198" d="m 474.6,448.56 4.68,0 0,4.56 -4.68,0 0,-4.56 z"/><g id="g200"><g id="g202" clip-path="url(#clipPath204)"><text style="font-variant:normal;font-weight:400;font-size:9px;font-family:Arial;-inkscape-font-specification:Arial;writing-mode:lr-tb;fill:#000;fill-opacity:1;fill-rule:nonzero;stroke:none" id="text208" transform="matrix(1,0,0,-1,481.15,447.67)"><tspan id="tspan210" x="0 2.034 4.068 9.072 12.033 17.037 21.537 23.985" y="0">librustc</tspan></text></g></g><path style="fill:#c0504d;fill-opacity:1;fill-rule:evenodd;stroke:none" id="path220" d="m 474.6,433.44 4.68,0 0,4.68 -4.68,0 0,-4.68 z"/><g id="g222"><g id="g224" clip-path="url(#clipPath226)"><text style="font-variant:normal;font-weight:400;font-size:9px;font-family:Arial;-inkscape-font-specification:Arial;writing-mode:lr-tb;fill:#000;fill-opacity:1;fill-rule:nonzero;stroke:none" id="text230" transform="matrix(1,0,0,-1,481.15,432.65)"><tspan id="tspan232" x="0 4.5 8.883 13.887 16.344 21.348" y="0">syntex</tspan></text></g></g><g id="g234"><g id="g236" clip-path="url(#clipPath238)"><text style="font-variant:normal;font-weight:400;font-size:9px;font-family:Arial;-inkscape-font-specification:Arial;writing-mode:lr-tb;fill:#000;fill-opacity:1;fill-rule:nonzero;stroke:none" id="text242" transform="matrix(1,0,0,-1,507.05,432.65)"><tspan id="tspan244" x="0" y="0">-</tspan></text></g></g><g id="g246"><g id="g248" clip-path="url(#clipPath250)"><text style="font-variant:normal;font-weight:400;font-size:9px;font-family:Arial;-inkscape-font-specification:Arial;writing-mode:lr-tb;fill:#000;fill-opacity:1;fill-rule:nonzero;stroke:none" id="text254" transform="matrix(1,0,0,-1,510.02,432.65)"><tspan id="tspan256" x="0 4.5 8.883 13.887 16.344 21.348" y="0">syntax</tspan></text></g></g><path style="fill:#9bbb59;fill-opacity:1;fill-rule:evenodd;stroke:none" id="path266" d="m 474.6,418.44 4.68,0 0,4.68 -4.68,0 0,-4.68 z"/><g id="g268"><g id="g270" clip-path="url(#clipPath272)"><text style="font-variant:normal;font-weight:400;font-size:9.02400017px;font-family:Arial;-inkscape-font-specification:Arial;writing-mode:lr-tb;fill:#000;fill-opacity:1;fill-rule:nonzero;stroke:none" id="text276" transform="matrix(1,0,0,-1,481.15,417.62)"><tspan id="tspan278" x="0 2.951 7.968 12.986 18.003" y="0">regex</tspan></text></g></g><path style="fill:#8064a2;fill-opacity:1;fill-rule:evenodd;stroke:none" id="path288" d="m 474.6,403.44 4.68,0 0,4.56 -4.68,0 0,-4.56 z"/><g id="g290"><g id="g292" clip-path="url(#clipPath294)"><text style="font-variant:normal;font-weight:400;font-size:9.02400017px;font-family:Arial;-inkscape-font-specification:Arial;writing-mode:lr-tb;fill:#000;fill-opacity:1;fill-rule:nonzero;stroke:none" id="text298" transform="matrix(1,0,0,-1,481.15,402.6)"><tspan id="tspan300" x="0 4.512 6.939" y="0">std</tspan></text></g></g><path style="fill:#4bacc6;fill-opacity:1;fill-rule:evenodd;stroke:none" id="path310" d="m 474.6,388.44 4.68,0 0,4.56 -4.68,0 0,-4.56 z"/><g id="g312"><g id="g314" clip-path="url(#clipPath316)"><text style="font-variant:normal;font-weight:400;font-size:9px;font-family:Arial;-inkscape-font-specification:Arial;writing-mode:lr-tb;fill:#000;fill-opacity:1;fill-rule:nonzero;stroke:none" id="text320" transform="matrix(1,0,0,-1,481.15,387.58)"><tspan id="tspan322" x="0 4.5 9.504 12.456" y="0">core</tspan></text></g></g><path style="fill:none;stroke:#868686;stroke-width:.63988;stroke-linecap:butt;stroke-linejoin:round;stroke-miterlimit:10;stroke-dasharray:none;stroke-opacity:1" id="path332" d="m 50.838,338.99 493.61,0 0,163.68 -493.61,0 0,-163.68 z"/></g></svg>