<svg xmlns="http://www.w3.org/2000/svg" xmlns:svg="http://www.w3.org/2000/svg" id="svg2" width="1063.08" height="272.023" version="1.1" viewBox="0 0 996.637 255.021" xml:space="preserve"><metadata id="metadata8"/><defs id="defs6"><clipPath id="clipPath30" clipPathUnits="userSpaceOnUse"><path id="path32" d="m 51.12,196.08 739.68,0 0,203.04 -739.68,0 0,-203.04 z" style="clip-rule:evenodd"/></clipPath><clipPath id="clipPath42" clipPathUnits="userSpaceOnUse"><path id="path44" d="m 51.12,196.08 739.68,0 0,203.04 -739.68,0 0,-203.04 z" style="clip-rule:evenodd"/></clipPath><clipPath id="clipPath50" clipPathUnits="userSpaceOnUse"><path id="path52" d="m 51.12,196.08 739.68,0 0,203.04 -739.68,0 0,-203.04 z" style="clip-rule:evenodd"/></clipPath><clipPath id="clipPath62" clipPathUnits="userSpaceOnUse"><path id="path64" d="m 51.12,196.08 739.68,0 0,203.04 -739.68,0 0,-203.04 z" style="clip-rule:evenodd"/></clipPath><clipPath id="clipPath70" clipPathUnits="userSpaceOnUse"><path id="path72" d="m 51.12,196.08 739.68,0 0,203.04 -739.68,0 0,-203.04 z" style="clip-rule:evenodd"/></clipPath><clipPath id="clipPath82" clipPathUnits="userSpaceOnUse"><path id="path84" d="m 51.12,196.08 739.68,0 0,203.04 -739.68,0 0,-203.04 z" style="clip-rule:evenodd"/></clipPath><clipPath id="clipPath90" clipPathUnits="userSpaceOnUse"><path id="path92" d="m 51.12,196.08 739.68,0 0,203.04 -739.68,0 0,-203.04 z" style="clip-rule:evenodd"/></clipPath><clipPath id="clipPath102" clipPathUnits="userSpaceOnUse"><path id="path104" d="m 51.12,196.08 739.68,0 0,203.04 -739.68,0 0,-203.04 z" style="clip-rule:evenodd"/></clipPath><clipPath id="clipPath110" clipPathUnits="userSpaceOnUse"><path id="path112" d="m 51.12,196.08 739.68,0 0,203.04 -739.68,0 0,-203.04 z" style="clip-rule:evenodd"/></clipPath><clipPath id="clipPath122" clipPathUnits="userSpaceOnUse"><path id="path124" d="m 51.12,196.08 739.68,0 0,203.04 -739.68,0 0,-203.04 z" style="clip-rule:evenodd"/></clipPath><clipPath id="clipPath130" clipPathUnits="userSpaceOnUse"><path id="path132" d="m 51.12,196.08 739.68,0 0,203.04 -739.68,0 0,-203.04 z" style="clip-rule:evenodd"/></clipPath><clipPath id="clipPath142" clipPathUnits="userSpaceOnUse"><path id="path144" d="m 51.12,196.08 739.68,0 0,203.04 -739.68,0 0,-203.04 z" style="clip-rule:evenodd"/></clipPath><clipPath id="clipPath150" clipPathUnits="userSpaceOnUse"><path id="path152" d="m 51.12,196.08 739.68,0 0,203.04 -739.68,0 0,-203.04 z" style="clip-rule:evenodd"/></clipPath><clipPath id="clipPath162" clipPathUnits="userSpaceOnUse"><path id="path164" d="m 51.12,196.08 739.68,0 0,203.04 -739.68,0 0,-203.04 z" style="clip-rule:evenodd"/></clipPath><clipPath id="clipPath170" clipPathUnits="userSpaceOnUse"><path id="path172" d="m 51.12,196.08 739.68,0 0,203.04 -739.68,0 0,-203.04 z" style="clip-rule:evenodd"/></clipPath><clipPath id="clipPath182" clipPathUnits="userSpaceOnUse"><path id="path184" d="m 51.12,196.08 739.68,0 0,203.04 -739.68,0 0,-203.04 z" style="clip-rule:evenodd"/></clipPath><clipPath id="clipPath190" clipPathUnits="userSpaceOnUse"><path id="path192" d="m 51.12,196.08 739.68,0 0,203.04 -739.68,0 0,-203.04 z" style="clip-rule:evenodd"/></clipPath><clipPath id="clipPath202" clipPathUnits="userSpaceOnUse"><path id="path204" d="m 51.12,196.08 739.68,0 0,203.04 -739.68,0 0,-203.04 z" style="clip-rule:evenodd"/></clipPath><clipPath id="clipPath210" clipPathUnits="userSpaceOnUse"><path id="path212" d="m 52.08,218.64 165,0 0,31.68 -165,0 0,-31.68 z" style="clip-rule:evenodd"/></clipPath><clipPath id="clipPath222" clipPathUnits="userSpaceOnUse"><path id="path224" d="m 52.08,218.64 165,0 0,31.68 -165,0 0,-31.68 z" style="clip-rule:evenodd"/></clipPath><clipPath id="clipPath230" clipPathUnits="userSpaceOnUse"><path id="path232" d="m 54.84,250.32 162.24,0 0,31.68 -162.24,0 0,-31.68 z" style="clip-rule:evenodd"/></clipPath><clipPath id="clipPath242" clipPathUnits="userSpaceOnUse"><path id="path244" d="m 54.84,250.32 162.24,0 0,31.68 -162.24,0 0,-31.68 z" style="clip-rule:evenodd"/></clipPath><clipPath id="clipPath250" clipPathUnits="userSpaceOnUse"><path id="path252" d="m 76.2,281.88 140.88,0 0,31.8 -140.88,0 0,-31.8 z" style="clip-rule:evenodd"/></clipPath><clipPath id="clipPath262" clipPathUnits="userSpaceOnUse"><path id="path264" d="m 76.2,281.88 140.88,0 0,31.8 -140.88,0 0,-31.8 z" style="clip-rule:evenodd"/></clipPath><clipPath id="clipPath270" clipPathUnits="userSpaceOnUse"><path id="path272" d="m 64.08,313.56 153,0 0,31.8 -153,0 0,-31.8 z" style="clip-rule:evenodd"/></clipPath><clipPath id="clipPath282" clipPathUnits="userSpaceOnUse"><path id="path284" d="m 64.08,313.56 153,0 0,31.8 -153,0 0,-31.8 z" style="clip-rule:evenodd"/></clipPath><clipPath id="clipPath290" clipPathUnits="userSpaceOnUse"><path id="path292" d="m 172.56,345.24 44.52,0 0,31.68 -44.52,0 0,-31.68 z" style="clip-rule:evenodd"/></clipPath><clipPath id="clipPath302" clipPathUnits="userSpaceOnUse"><path id="path304" d="m 172.56,345.24 44.52,0 0,31.68 -44.52,0 0,-31.68 z" style="clip-rule:evenodd"/></clipPath><clipPath id="clipPath312" clipPathUnits="userSpaceOnUse"><path id="path314" d="m 634.32,196.08 150.84,0 0,109.08 -150.84,0 0,-109.08 z" style="clip-rule:evenodd"/></clipPath><clipPath id="clipPath324" clipPathUnits="userSpaceOnUse"><path id="path326" d="m 634.32,196.08 150.84,0 0,109.08 -150.84,0 0,-109.08 z" style="clip-rule:evenodd"/></clipPath></defs><g id="g10" transform="matrix(1.25,0,0,-1.25,-27.832485,499.51069)"><path style="fill:#fff;fill-opacity:1;fill-rule:evenodd;stroke:none" id="path12" d="m 51.12,195.96 739.8,0 0,203.16 -739.8,0 0,-203.16 z"/><path style="fill:#fff;fill-opacity:1;fill-rule:evenodd;stroke:none" id="path14" d="m 220.68,226.68 384.72,0 0,158.4 -384.72,0 0,-158.4 z"/><path style="fill:#4f81bd;fill-opacity:1;fill-rule:nonzero;stroke:none" id="path16" d="m 220.68,248.88 115.44,0 0,-12.6 -115.44,0 0,12.6 z m 0,31.68 146.16,0 0,-12.6 -146.16,0 0,12.6 z m 0,31.68 73.44,0 0,-12.6 -73.44,0 0,12.6 z m 0,31.68 355.8,0 0,-12.72 -355.8,0 0,12.72 z m 0,31.68 361.56,0 0,-12.72 -361.56,0 0,12.72 z"/><path style="fill:none;stroke:#868686;stroke-width:.83999997;stroke-linecap:butt;stroke-linejoin:round;stroke-miterlimit:10;stroke-dasharray:none;stroke-opacity:1" id="path18" d="m 220.74,226.74 384.6,0"/><path style="fill:none;stroke:#868686;stroke-width:.83999997;stroke-linecap:butt;stroke-linejoin:round;stroke-miterlimit:10;stroke-dasharray:none;stroke-opacity:1" id="path20" d="m 220.74,226.74 0,-3.84 m 48,3.84 0,-3.84 m 48.12,3.84 0,-3.84 m 48.12,3.84 0,-3.84 m 48,3.84 0,-3.84 m 48.12,3.84 0,-3.84 m 48,3.84 0,-3.84 m 48.12,3.84 0,-3.84 m 48.12,3.84 0,-3.84"/><path style="fill:none;stroke:#868686;stroke-width:.83999997;stroke-linecap:butt;stroke-linejoin:round;stroke-miterlimit:10;stroke-dasharray:none;stroke-opacity:1" id="path22" d="m 220.74,226.74 0,158.4"/><path style="fill:none;stroke:#868686;stroke-width:.83999997;stroke-linecap:butt;stroke-linejoin:round;stroke-miterlimit:10;stroke-dasharray:none;stroke-opacity:1" id="path24" d="m 216.9,226.74 3.84,0 m -3.84,31.68 3.84,0 m -3.84,31.68 3.84,0 m -3.84,31.68 3.84,0 m -3.84,31.68 3.84,0 m -3.84,31.68 3.84,0"/><g id="g26"><g id="g28" clip-path="url(#clipPath30)"><text style="font-variant:normal;font-weight:400;font-size:12.6960001px;font-family:Arial;-inkscape-font-specification:Arial;writing-mode:lr-tb;fill:#000;fill-opacity:1;fill-rule:nonzero;stroke:none" id="text34" transform="matrix(1,0,0,-1,217.25,207.02)"><tspan id="tspan36" x="0" y="0">0</tspan></text></g></g><g id="g46"><g id="g48" clip-path="url(#clipPath50)"><text style="font-variant:normal;font-weight:400;font-size:12.6960001px;font-family:Arial;-inkscape-font-specification:Arial;writing-mode:lr-tb;fill:#000;fill-opacity:1;fill-rule:nonzero;stroke:none" id="text54" transform="matrix(1,0,0,-1,265.32,207.02)"><tspan id="tspan56" x="0" y="0">2</tspan></text></g></g><g id="g66"><g id="g68" clip-path="url(#clipPath70)"><text style="font-variant:normal;font-weight:400;font-size:12.6960001px;font-family:Arial;-inkscape-font-specification:Arial;writing-mode:lr-tb;fill:#000;fill-opacity:1;fill-rule:nonzero;stroke:none" id="text74" transform="matrix(1,0,0,-1,313.39,207.02)"><tspan id="tspan76" x="0" y="0">4</tspan></text></g></g><g id="g86"><g id="g88" clip-path="url(#clipPath90)"><text style="font-variant:normal;font-weight:400;font-size:12.6960001px;font-family:Arial;-inkscape-font-specification:Arial;writing-mode:lr-tb;fill:#000;fill-opacity:1;fill-rule:nonzero;stroke:none" id="text94" transform="matrix(1,0,0,-1,361.49,207.02)"><tspan id="tspan96" x="0" y="0">6</tspan></text></g></g><g id="g106"><g id="g108" clip-path="url(#clipPath110)"><text style="font-variant:normal;font-weight:400;font-size:12.6960001px;font-family:Arial;-inkscape-font-specification:Arial;writing-mode:lr-tb;fill:#000;fill-opacity:1;fill-rule:nonzero;stroke:none" id="text114" transform="matrix(1,0,0,-1,409.56,207.02)"><tspan id="tspan116" x="0" y="0">8</tspan></text></g></g><g id="g126"><g id="g128" clip-path="url(#clipPath130)"><text style="font-variant:normal;font-weight:400;font-size:12.6960001px;font-family:Arial;-inkscape-font-specification:Arial;writing-mode:lr-tb;fill:#000;fill-opacity:1;fill-rule:nonzero;stroke:none" id="text134" transform="matrix(1,0,0,-1,454.13,207.02)"><tspan id="tspan136" x="0 7.056" y="0">10</tspan></text></g></g><g id="g146"><g id="g148" clip-path="url(#clipPath150)"><text style="font-variant:normal;font-weight:400;font-size:12.6960001px;font-family:Arial;-inkscape-font-specification:Arial;writing-mode:lr-tb;fill:#000;fill-opacity:1;fill-rule:nonzero;stroke:none" id="text154" transform="matrix(1,0,0,-1,502.2,207.02)"><tspan id="tspan156" x="0 7.032" y="0">12</tspan></text></g></g><g id="g166"><g id="g168" clip-path="url(#clipPath170)"><text style="font-variant:normal;font-weight:400;font-size:12.6960001px;font-family:Arial;-inkscape-font-specification:Arial;writing-mode:lr-tb;fill:#000;fill-opacity:1;fill-rule:nonzero;stroke:none" id="text174" transform="matrix(1,0,0,-1,550.27,207.02)"><tspan id="tspan176" x="0 7.056" y="0">14</tspan></text></g></g><g id="g186"><g id="g188" clip-path="url(#clipPath190)"><text style="font-variant:normal;font-weight:400;font-size:12.6960001px;font-family:Arial;-inkscape-font-specification:Arial;writing-mode:lr-tb;fill:#000;fill-opacity:1;fill-rule:nonzero;stroke:none" id="text194" transform="matrix(1,0,0,-1,598.37,207.02)"><tspan id="tspan196" x="0 7.056" y="0">16</tspan></text></g></g><g id="g206"><g id="g208" clip-path="url(#clipPath210)"><text style="font-variant:normal;font-weight:400;font-size:12.72000027px;font-family:Arial;-inkscape-font-specification:Arial;writing-mode:lr-tb;fill:#000;fill-opacity:1;fill-rule:nonzero;stroke:none" id="text214" transform="matrix(1,0,0,-1,59.688,238.27)"><tspan id="tspan216" x="0 9.184 16.256 23.328 30.363 37.435 44.507 48.158 55.23 58.894 65.966 69.502 73.038 82.057 86.343 89.104 92.64 99.712 106.746 113.03 120.102 124.363 127.124 134.196 141.268 145.504" y="0">Change dfa::write_vari32()</tspan></text></g></g><g id="g226"><g id="g228" clip-path="url(#clipPath230)"><text style="font-variant:normal;font-weight:400;font-size:12.72000027px;font-family:Arial;-inkscape-font-specification:Arial;writing-mode:lr-tb;fill:#000;fill-opacity:1;fill-rule:nonzero;stroke:none" id="text234" transform="matrix(1,0,0,-1,62.472,269.95)"><tspan id="tspan236" x="0 9.184 16.256 23.252 30.286 37.32 44.355 48.018 55.052 61.476 68.51 75.544 82.578 89.612 93.149 96.685 103.706 110.13 117.164 124.198 131.232 138.266 142.553" y="0">Change expand::expand()</tspan></text></g></g><g id="g246"><g id="g248" clip-path="url(#clipPath250)"><text style="font-variant:normal;font-weight:400;font-size:12.72000027px;font-family:Arial;-inkscape-font-specification:Arial;writing-mode:lr-tb;fill:#000;fill-opacity:1;fill-rule:nonzero;stroke:none" id="text254" transform="matrix(1,0,0,-1,83.544,301.63)"><tspan id="tspan256" x="0 9.184 16.256 23.328 30.363 37.435 44.507 48.132 56.553 60.84 65.126 72.199 76.46 79.996 83.532 89.93 97.003 104.075 110.46 117.533 121.794" y="0">Change Error::cause()</tspan></text></g></g><g id="g266"><g id="g268" clip-path="url(#clipPath270)"><text style="font-variant:normal;font-weight:400;font-size:12.6960001px;font-family:Arial;-inkscape-font-specification:Arial;writing-mode:lr-tb;fill:#000;fill-opacity:1;fill-rule:nonzero;stroke:none" id="text274" transform="matrix(1,0,0,-1,71.712,333.31)"><tspan id="tspan276" x="0 9.167 16.225 23.284 30.343 37.402 44.461 48.131 57.297 64.356 75.236 82.295 85.051 87.806 94.865 99.143 102.673 106.202 113.261 120.32 129.36 133.638" y="0">Change Compiler::new()</tspan></text></g></g><g id="g286"><g id="g288" clip-path="url(#clipPath290)"><text style="font-variant:normal;font-weight:400;font-size:12.6960001px;font-family:Arial;-inkscape-font-specification:Arial;writing-mode:lr-tb;fill:#000;fill-opacity:1;fill-rule:nonzero;stroke:none" id="text294" transform="matrix(1,0,0,-1,180.17,364.99)"><tspan id="tspan296" x="0 3.529 10.538 13.293 16.822 19.552 26.611" y="0">Initial</tspan></text></g></g><path style="fill:#4f81bd;fill-opacity:1;fill-rule:evenodd;stroke:none" id="path306" d="m 632.52,294.24 6.48,0 0,6.6 -6.48,0 0,-6.6 z"/><g id="g308"><g id="g310" clip-path="url(#clipPath312)"><text style="font-variant:normal;font-weight:400;font-size:12.6960001px;font-family:Arial;-inkscape-font-specification:Arial;writing-mode:lr-tb;fill:#000;fill-opacity:1;fill-rule:nonzero;stroke:none" id="text316" transform="matrix(1,0,0,-1,641.78,293.09)"><tspan id="tspan318" x="0 6.424 13.483 24.313 31.372 34.076 36.818 43.877 47.216 50.746 53.45 64.305 71.364 74.843 77.585 84.644 88.275 94.699 101.758 108.145 115.204 122.212 129.271" y="0">compile time in seconds</tspan></text></g></g><path style="fill:none;stroke:#868686;stroke-width:.95710999;stroke-linecap:butt;stroke-linejoin:round;stroke-miterlimit:10;stroke-dasharray:none;stroke-opacity:1" id="path328" d="m 51.091,196.07 739.66,0 0,203.06 -739.66,0 0,-203.06 z"/></g></svg>