<svg xmlns="http://www.w3.org/2000/svg" xmlns:svg="http://www.w3.org/2000/svg" id="svg2" width="734.496" height="219.546" version="1.1" viewBox="0 0 688.59 205.824" xml:space="preserve"><metadata id="metadata8"/><defs id="defs6"><clipPath id="clipPath34" clipPathUnits="userSpaceOnUse"><path id="path36" d="m 50.88,338.76 493.56,0 0,164.04 -493.56,0 0,-164.04 z" style="clip-rule:evenodd"/></clipPath><clipPath id="clipPath46" clipPathUnits="userSpaceOnUse"><path id="path48" d="m 50.88,338.76 493.56,0 0,164.04 -493.56,0 0,-164.04 z" style="clip-rule:evenodd"/></clipPath><clipPath id="clipPath54" clipPathUnits="userSpaceOnUse"><path id="path56" d="m 50.88,338.76 493.56,0 0,164.04 -493.56,0 0,-164.04 z" style="clip-rule:evenodd"/></clipPath><clipPath id="clipPath66" clipPathUnits="userSpaceOnUse"><path id="path68" d="m 50.88,338.76 493.56,0 0,164.04 -493.56,0 0,-164.04 z" style="clip-rule:evenodd"/></clipPath><clipPath id="clipPath74" clipPathUnits="userSpaceOnUse"><path id="path76" d="m 50.88,338.76 493.56,0 0,164.04 -493.56,0 0,-164.04 z" style="clip-rule:evenodd"/></clipPath><clipPath id="clipPath86" clipPathUnits="userSpaceOnUse"><path id="path88" d="m 50.88,338.76 493.56,0 0,164.04 -493.56,0 0,-164.04 z" style="clip-rule:evenodd"/></clipPath><clipPath id="clipPath94" clipPathUnits="userSpaceOnUse"><path id="path96" d="m 98.64,338.76 61.92,0 0,15.36 -61.92,0 0,-15.36 z" style="clip-rule:evenodd"/></clipPath><clipPath id="clipPath106" clipPathUnits="userSpaceOnUse"><path id="path108" d="m 98.64,338.76 61.92,0 0,15.36 -61.92,0 0,-15.36 z" style="clip-rule:evenodd"/></clipPath><clipPath id="clipPath118" clipPathUnits="userSpaceOnUse"><path id="path120" d="m 98.64,338.76 61.92,0 0,15.36 -61.92,0 0,-15.36 z" style="clip-rule:evenodd"/></clipPath><clipPath id="clipPath130" clipPathUnits="userSpaceOnUse"><path id="path132" d="m 98.64,338.76 61.92,0 0,15.36 -61.92,0 0,-15.36 z" style="clip-rule:evenodd"/></clipPath><clipPath id="clipPath138" clipPathUnits="userSpaceOnUse"><path id="path140" d="m 202.08,338.76 31.08,0 0,15.36 -31.08,0 0,-15.36 z" style="clip-rule:evenodd"/></clipPath><clipPath id="clipPath150" clipPathUnits="userSpaceOnUse"><path id="path152" d="m 202.08,338.76 31.08,0 0,15.36 -31.08,0 0,-15.36 z" style="clip-rule:evenodd"/></clipPath><clipPath id="clipPath158" clipPathUnits="userSpaceOnUse"><path id="path160" d="m 287.76,338.76 35.76,0 0,15.36 -35.76,0 0,-15.36 z" style="clip-rule:evenodd"/></clipPath><clipPath id="clipPath170" clipPathUnits="userSpaceOnUse"><path id="path172" d="m 287.76,338.76 35.76,0 0,15.36 -35.76,0 0,-15.36 z" style="clip-rule:evenodd"/></clipPath><clipPath id="clipPath178" clipPathUnits="userSpaceOnUse"><path id="path180" d="m 364.8,338.76 57.72,0 0,15.36 -57.72,0 0,-15.36 z" style="clip-rule:evenodd"/></clipPath><clipPath id="clipPath190" clipPathUnits="userSpaceOnUse"><path id="path192" d="m 364.8,338.76 57.72,0 0,15.36 -57.72,0 0,-15.36 z" style="clip-rule:evenodd"/></clipPath><clipPath id="clipPath200" clipPathUnits="userSpaceOnUse"><path id="path202" d="m 452.28,338.76 39.72,0 0,101.52 -39.72,0 0,-101.52 z" style="clip-rule:evenodd"/></clipPath><clipPath id="clipPath212" clipPathUnits="userSpaceOnUse"><path id="path214" d="m 452.28,338.76 39.72,0 0,101.52 -39.72,0 0,-101.52 z" style="clip-rule:evenodd"/></clipPath><clipPath id="clipPath222" clipPathUnits="userSpaceOnUse"><path id="path224" d="m 452.28,338.76 81.84,0 0,87 -81.84,0 0,-87 z" style="clip-rule:evenodd"/></clipPath><clipPath id="clipPath234" clipPathUnits="userSpaceOnUse"><path id="path236" d="m 452.28,338.76 81.84,0 0,87 -81.84,0 0,-87 z" style="clip-rule:evenodd"/></clipPath><clipPath id="clipPath244" clipPathUnits="userSpaceOnUse"><path id="path246" d="m 452.28,338.76 88.44,0 0,72.48 -88.44,0 0,-72.48 z" style="clip-rule:evenodd"/></clipPath><clipPath id="clipPath256" clipPathUnits="userSpaceOnUse"><path id="path258" d="m 452.28,338.76 88.44,0 0,72.48 -88.44,0 0,-72.48 z" style="clip-rule:evenodd"/></clipPath></defs><g id="g10" transform="matrix(1.25,0,0,-1.25,-27.838667,628.84951)"><path style="fill:#fff;fill-opacity:1;fill-rule:evenodd;stroke:none" id="path12" d="m 50.88,338.64 493.68,0 0,164.16 -493.68,0 0,-164.16 z"/><path style="fill:#fff;fill-opacity:1;fill-rule:evenodd;stroke:none" id="path14" d="m 85.56,359.16 352.2,0 0,134.28 -352.2,0 0,-134.28 z"/><path style="fill:#9bbb59;fill-opacity:1;fill-rule:nonzero;stroke:none" id="path16" d="m 100.32,471 19.56,0 0,-111.72 -19.56,0 0,111.72 z m 87.96,0 19.56,0 0,-111.72 -19.56,0 0,111.72 z m 88.08,0 19.56,0 0,-111.72 -19.56,0 0,111.72 z m 87.96,0 19.56,0 0,-111.72 -19.56,0 0,111.72 z"/><path style="fill:#4f81bd;fill-opacity:1;fill-rule:nonzero;stroke:none" id="path18" d="m 119.88,479.28 19.56,0 0,-120 -19.56,0 0,120 z m 87.96,-32.52 19.56,0 0,-87.48 -19.56,0 0,87.48 z m 88.08,31.68 19.56,0 0,-119.16 -19.56,0 0,119.16 z m 87.96,-14.16 19.56,0 0,-105 -19.56,0 0,105 z"/><path style="fill:#c0504d;fill-opacity:1;fill-rule:nonzero;stroke:none" id="path20" d="m 139.44,383.76 19.56,0 0,-24.48 -19.56,0 0,24.48 z m 87.96,-6.84 19.56,0 0,-17.64 -19.56,0 0,17.64 z m 88.08,91.08 19.56,0 0,-108.72 -19.56,0 0,108.72 z m 87.96,-98.64 19.56,0 0,-10.08 -19.56,0 0,10.08 z"/><path style="fill:none;stroke:#868686;stroke-width:.60000002;stroke-linecap:butt;stroke-linejoin:round;stroke-miterlimit:10;stroke-dasharray:none;stroke-opacity:1" id="path22" d="m 85.62,359.22 0,134.16"/><path style="fill:none;stroke:#868686;stroke-width:.60000002;stroke-linecap:butt;stroke-linejoin:round;stroke-miterlimit:10;stroke-dasharray:none;stroke-opacity:1" id="path24" d="m 82.98,359.22 2.64,0 m -2.64,55.92 2.64,0 m -2.64,55.92 2.64,0"/><path style="fill:none;stroke:#868686;stroke-width:.60000002;stroke-linecap:butt;stroke-linejoin:round;stroke-miterlimit:10;stroke-dasharray:none;stroke-opacity:1" id="path26" d="m 85.62,359.22 352.08,0"/><path style="fill:none;stroke:#868686;stroke-width:.60000002;stroke-linecap:butt;stroke-linejoin:round;stroke-miterlimit:10;stroke-dasharray:none;stroke-opacity:1" id="path28" d="m 85.62,359.22 0,-2.52 m 87.96,2.52 0,-2.52 m 88.08,2.52 0,-2.52 m 87.96,2.52 0,-2.52 m 88.08,2.52 0,-2.52"/><g id="g30"><g id="g32" clip-path="url(#clipPath34)"><text style="font-variant:normal;font-weight:400;font-size:8.49600029px;font-family:Arial;-inkscape-font-specification:Arial;writing-mode:lr-tb;fill:#000;fill-opacity:1;fill-rule:nonzero;stroke:none" id="text38" transform="matrix(1,0,0,-1,65.904,356.33)"><tspan id="tspan40" x="0 4.704" y="0">0%</tspan></text></g></g><g id="g50"><g id="g52" clip-path="url(#clipPath54)"><text style="font-variant:normal;font-weight:400;font-size:8.49600029px;font-family:Arial;-inkscape-font-specification:Arial;writing-mode:lr-tb;fill:#000;fill-opacity:1;fill-rule:nonzero;stroke:none" id="text58" transform="matrix(1,0,0,-1,61.176,412.22)"><tspan id="tspan60" x="0 4.704 9.408" y="0">50%</tspan></text></g></g><g id="g70"><g id="g72" clip-path="url(#clipPath74)"><text style="font-variant:normal;font-weight:400;font-size:8.49600029px;font-family:Arial;-inkscape-font-specification:Arial;writing-mode:lr-tb;fill:#000;fill-opacity:1;fill-rule:nonzero;stroke:none" id="text78" transform="matrix(1,0,0,-1,56.472,468.14)"><tspan id="tspan80" x="0 4.728 9.456 14.184" y="0">100%</tspan></text></g></g><g id="g90"><g id="g92" clip-path="url(#clipPath94)"><text style="font-variant:normal;font-weight:400;font-size:8.49600029px;font-family:Arial;-inkscape-font-specification:Arial;writing-mode:lr-tb;fill:#000;fill-opacity:1;fill-rule:nonzero;stroke:none" id="text98" transform="matrix(1,0,0,-1,103.73,346.03)"><tspan id="tspan100" x="0 4.29 8.275 12.999 15.335 20.059" y="0">syntex</tspan></text></g></g><g id="g102"><g id="g104" clip-path="url(#clipPath106)"><text style="font-variant:normal;font-weight:400;font-size:8.49600029px;font-family:Arial;-inkscape-font-specification:Arial;writing-mode:lr-tb;fill:#000;fill-opacity:1;fill-rule:nonzero;stroke:none" id="text110" transform="matrix(1,0,0,-1,128.06,346.03)"><tspan id="tspan112" x="0" y="0">-</tspan></text></g></g><g id="g114"><g id="g116" clip-path="url(#clipPath118)"><text style="font-variant:normal;font-weight:400;font-size:8.49600029px;font-family:Arial;-inkscape-font-specification:Arial;writing-mode:lr-tb;fill:#000;fill-opacity:1;fill-rule:nonzero;stroke:none" id="text122" transform="matrix(1,0,0,-1,130.94,346.03)"><tspan id="tspan124" x="0 4.29 8.275 12.999 15.42 20.144" y="0">syntax</tspan></text></g></g><g id="g134"><g id="g136" clip-path="url(#clipPath138)"><text style="font-variant:normal;font-weight:400;font-size:8.49600029px;font-family:Arial;-inkscape-font-specification:Arial;writing-mode:lr-tb;fill:#000;fill-opacity:1;fill-rule:nonzero;stroke:none" id="text142" transform="matrix(1,0,0,-1,207,346.03)"><tspan id="tspan144" x="0 2.846 7.57 12.251 16.975" y="0">regex</tspan></text></g></g><g id="g154"><g id="g156" clip-path="url(#clipPath158)"><text style="font-variant:normal;font-weight:400;font-size:8.49600029px;font-family:Arial;-inkscape-font-specification:Arial;writing-mode:lr-tb;fill:#000;fill-opacity:1;fill-rule:nonzero;stroke:none" id="text162" transform="matrix(1,0,0,-1,292.58,346.03)"><tspan id="tspan164" x="0 2.438 7.162 9.499 14.222 17.051 21.775" y="0">futures</tspan></text></g></g><g id="g174"><g id="g176" clip-path="url(#clipPath178)"><text style="font-variant:normal;font-weight:400;font-size:8.49600029px;font-family:Arial;-inkscape-font-specification:Arial;writing-mode:lr-tb;fill:#000;fill-opacity:1;fill-rule:nonzero;stroke:none" id="text182" transform="matrix(1,0,0,-1,369.79,346.03)"><tspan id="tspan184" x="0 2.438 7.162 9.499 14.222 17.051 21.775 26.049 28.309 31.155 33.517 38.215 42.505 44.867" y="0">futures (test)</tspan></text></g></g><path style="fill:#9bbb59;fill-opacity:1;fill-rule:evenodd;stroke:none" id="path194" d="m 451.08,433.08 4.44,0 0,4.32 -4.44,0 0,-4.32 z"/><g id="g196"><g id="g198" clip-path="url(#clipPath200)"><text style="font-variant:normal;font-weight:400;font-size:8.47200012px;font-family:Arial;-inkscape-font-specification:Arial;writing-mode:lr-tb;fill:#000;fill-opacity:1;fill-rule:nonzero;stroke:none" id="text204" transform="matrix(1,0,0,-1,457.3,432.26)"><tspan id="tspan206" x="0 6.134 10.844 15.58 20.29 22.171 26.882" y="0">Regular</tspan></text></g></g><path style="fill:#4f81bd;fill-opacity:1;fill-rule:evenodd;stroke:none" id="path216" d="m 451.08,418.44 4.44,0 0,4.44 -4.44,0 0,-4.44 z"/><g id="g218"><g id="g220" clip-path="url(#clipPath222)"><text style="font-variant:normal;font-weight:400;font-size:8.49600029px;font-family:Arial;-inkscape-font-specification:Arial;writing-mode:lr-tb;fill:#000;fill-opacity:1;fill-rule:nonzero;stroke:none" id="text226" transform="matrix(1,0,0,-1,457.3,417.72)"><tspan id="tspan228" x="0 2.362 7.086 11.368 14.239 18.963 26.227 30.951 35.675 38.037 42.76 44.612 46.872 49.744 51.596 56.32 58.172 60.534 62.369 67.093 68.945" y="0">Incremental (initial)</tspan></text></g></g><path style="fill:#c0504d;fill-opacity:1;fill-rule:evenodd;stroke:none" id="path238" d="m 451.08,403.92 4.44,0 0,4.44 -4.44,0 0,-4.44 z"/><g id="g240"><g id="g242" clip-path="url(#clipPath244)"><text style="font-variant:normal;font-weight:400;font-size:8.49600029px;font-family:Arial;-inkscape-font-specification:Arial;writing-mode:lr-tb;fill:#000;fill-opacity:1;fill-rule:nonzero;stroke:none" id="text248" transform="matrix(1,0,0,-1,457.3,403.18)"><tspan id="tspan250" x="0 2.362 7.086 11.368 14.239 18.963 26.227 30.951 35.675 38.037 42.76 44.612 46.872 49.744 54.468 59.192 63.915 68.639 71.001 75.725" y="0">Incremental (update)</tspan></text></g></g><path style="fill:none;stroke:#868686;stroke-width:.63922;stroke-linecap:butt;stroke-linejoin:round;stroke-miterlimit:10;stroke-dasharray:none;stroke-opacity:1" id="path260" d="m 50.937,338.74 493.54,0 0,164.02 -493.54,0 0,-164.02 z"/></g></svg>